<?xml version="1.0" encoding="UTF-8"?>
<svg width="168px" height="168px" viewBox="0 0 168 168" version="1.1" xmlns="http://www.w3.org/2000/svg" xmlns:xlink="http://www.w3.org/1999/xlink">
    <!-- Generator: Sketch 3.8.3 (29802) - http://www.bohemiancoding.com/sketch -->
    <title>Evenement</title>
    <desc>Created with Sketch.</desc>
    <defs></defs>
    <g id="Page-1" stroke="none" stroke-width="1" fill="none" fill-rule="evenodd">
        <g id="Icons" transform="translate(-755.000000, -65.000000)">
            <g id="Group-Copy-3" transform="translate(755.000000, 65.000000)" fill="#1C257D">
                <circle id="Oval-1" cx="84" cy="84" r="84"></circle>
            </g>
            <g id="alcoholic-drink" transform="translate(806.000000, 110.000000)">
                <g id="Capa_1">
                    <g id="Group">
                        <path id="Shape" fill="#000000"></path>
                        <path d="M54.8197647,0 C47.9529412,0 42.2908235,5.45171831 41.6884706,12.2360789 L2.77647059,12.2360789 C1.21035294,12.2360789 0.00564705882,13.0841239 0.00564705882,14.2956169 L0.00564705882,14.7802141 L27.232,44.7040901 L27.232,81.5334761 L19.6423529,81.5334761 C18.9195294,81.5334761 18.4376471,82.0180732 18.4376471,82.744969 C18.4376471,83.4718648 18.9195294,83.956462 19.6423529,83.956462 L37.3515294,83.956462 C38.0743529,83.956462 38.5562353,83.4718648 38.5562353,82.744969 C38.5562353,82.0180732 38.0743529,81.5334761 37.3515294,81.5334761 L29.7618824,81.5334761 L29.7618824,44.5829408 L47.9529412,24.4721577 C50.0009412,25.8048 52.4103529,26.4105465 54.8197647,26.4105465 C62.048,26.4105465 67.9510588,20.474231 67.9510588,13.2052732 C67.9510588,5.93631549 62.048,0 54.8197647,0 L54.8197647,0 Z M28.5571765,42.2811042 L28.3162353,42.2811042 L9.88423529,22.0491718 C12.4141176,21.0799775 14.944,20.2319324 19.4014118,20.2319324 C24.2202353,20.2319324 26.7501176,21.2011268 29.4004706,22.1703211 C32.1712941,23.1395155 35.0625882,24.2298592 40.2428235,24.2298592 C42.1703529,24.2298592 43.8569412,24.1087099 45.1821176,23.8664113 L28.5571765,42.2811042 L28.5571765,42.2811042 Z M40.2428235,21.9280225 C35.424,21.9280225 32.8941176,20.9588282 30.2437647,19.9896338 C27.4729412,19.0204394 24.5816471,17.9300958 19.4014118,17.9300958 C14.2211765,17.9300958 11.3298824,19.0204394 8.55905882,19.9896338 L8.19764706,20.1107831 L3.13788235,14.6590648 L53.6150588,14.6590648 L48.1938824,20.7165296 C46.2663529,21.3222761 43.9774118,21.9280225 40.2428235,21.9280225 L40.2428235,21.9280225 Z M54.8197647,24.1087099 C53.0127059,24.1087099 51.2056471,23.6241127 49.6395294,22.7760676 L56.8677647,14.7802141 L56.8677647,14.2956169 C56.8677647,13.0841239 55.6630588,12.2360789 54.0969412,12.2360789 L44.0978824,12.2360789 C44.5797647,6.78436056 49.1576471,2.42298592 54.8197647,2.42298592 C60.7228235,2.42298592 65.5416471,7.26895775 65.5416471,13.2052732 C65.5416471,19.262738 60.7228235,24.1087099 54.8197647,24.1087099 L54.8197647,24.1087099 Z" id="Shape" fill="#FFBE34"></path>
                    </g>
                    <path d="M62.5298824,11.9937803 L59.6385882,11.9937803 C58.9157647,11.9937803 58.4338824,12.4783775 58.4338824,13.2052732 C58.4338824,13.932169 58.9157647,14.4167662 59.6385882,14.4167662 L62.5298824,14.4167662 C63.2527059,14.4167662 63.7345882,13.932169 63.7345882,13.2052732 C63.7345882,12.5995268 63.1322353,11.9937803 62.5298824,11.9937803 L62.5298824,11.9937803 Z" id="Shape" fill="#FFBE34"></path>
                    <path d="M54.8197647,4.36137465 C54.0969412,4.36137465 53.6150588,4.84597183 53.6150588,5.57286761 L53.6150588,8.4804507 C53.6150588,9.20734648 54.0969412,9.69194366 54.8197647,9.69194366 C55.5425882,9.69194366 56.0244706,9.20734648 56.0244706,8.4804507 L56.0244706,5.57286761 C56.0244706,4.84597183 55.5425882,4.36137465 54.8197647,4.36137465 L54.8197647,4.36137465 Z" id="Shape" fill="#FFBE34"></path>
                    <path d="M61.0842353,17.8089465 L59.0362353,15.7494085 C58.5543529,15.2648113 57.8315294,15.2648113 57.3496471,15.7494085 C56.8677647,16.2340056 56.8677647,16.9609014 57.3496471,17.4454986 L59.3976471,19.5050366 C59.6385882,19.7473352 60,19.8684845 60.2409412,19.8684845 C60.6023529,19.8684845 60.8432941,19.7473352 61.0842353,19.5050366 C61.5661176,19.0204394 61.5661176,18.2935437 61.0842353,17.8089465 L61.0842353,17.8089465 Z" id="Shape" fill="#FFBE34"></path>
                    <path d="M52.2898824,8.96504789 L50.2418824,6.90550986 C49.76,6.42091268 49.0371765,6.42091268 48.5552941,6.90550986 C48.0734118,7.39010704 48.0734118,8.11700282 48.5552941,8.6016 L50.6032941,10.661138 C50.8442353,10.9034366 51.2056471,11.0245859 51.4465882,11.0245859 C51.808,11.0245859 52.0489412,10.9034366 52.2898824,10.661138 C52.7717647,10.1765408 52.7717647,9.44964507 52.2898824,8.96504789 L52.2898824,8.96504789 Z" id="Shape" fill="#FFBE34"></path>
                    <path d="M61.0842353,6.90550986 C60.6023529,6.42091268 59.8795294,6.42091268 59.3976471,6.90550986 L57.3496471,8.96504789 C56.8677647,9.44964507 56.8677647,10.1765408 57.3496471,10.661138 C57.5905882,10.9034366 57.8315294,11.0245859 58.1929412,11.0245859 C58.5543529,11.0245859 58.7952941,10.9034366 59.0362353,10.661138 L61.0842353,8.6016 C61.5661176,8.11700282 61.5661176,7.39010704 61.0842353,6.90550986 L61.0842353,6.90550986 Z" id="Shape" fill="#FFBE34"></path>
                </g>
            </g>
        </g>
    </g>
</svg>